<svg width="242" height="56" viewBox="0 0 242 56" fill="none" xmlns="http://www.w3.org/2000/svg">
<g clip-path="url(#clip0)">
<path d="M69.2 31.3C68.4 31.3 67.4667 31.2 66.4 31C66.5333 29.3667 66.65 27.0333 66.75 24C66.8833 20.9667 66.95 18.2667 66.95 15.9C66.95 10.4 66.6667 7.01667 66.1 5.75C67.1333 5.35 68.4833 5.03333 70.15 4.8C71.85 4.53333 73.5667 4.4 75.3 4.4C78.6333 4.4 81.2 5.16667 83 6.7C84.8 8.2 85.7 10.3667 85.7 13.2C85.7 14.9 85.25 16.4167 84.35 17.75C83.4833 19.05 82.2333 20.0833 80.6 20.85C83.1667 25.8833 85.2167 29.0167 86.75 30.25C85.85 30.65 84.9167 30.9167 83.95 31.05C83.0167 31.2167 81.9667 31.3 80.8 31.3C80.1 29.5 78.5333 26.3833 76.1 21.95C75.9667 21.9833 75.6667 22 75.2 22C74.5333 22 73.8 21.9667 73 21.9C72.2333 21.8333 71.6333 21.7333 71.2 21.6C71.2333 26.4 71.5 29.5333 72 31C71.1 31.2 70.1667 31.3 69.2 31.3ZM76.65 19.45C77.9167 18.9167 78.95 18.1333 79.75 17.1C80.55 16.0667 80.95 14.9 80.95 13.6C80.95 9.63333 78.7167 7.65 74.25 7.65C73.2833 7.65 72.3833 7.76667 71.55 8C71.3833 10.4333 71.2667 13.8333 71.2 18.2C73.5333 19.0333 75.35 19.45 76.65 19.45ZM91.5465 31.15C91.7798 27.6833 91.9298 25.0667 91.9965 23.3C92.0632 21.5 92.0965 19.0667 92.0965 16C92.0965 10.5 91.8132 6.71667 91.2465 4.65C93.0132 4.88333 95.6965 5 99.2965 5C103.73 5 107.163 4.88333 109.596 4.65C109.596 5.55 109.496 6.51667 109.296 7.55C109.096 8.58333 108.846 9.3 108.546 9.7C107.746 9.26667 106.713 8.93333 105.446 8.7C104.18 8.46667 102.88 8.35 101.546 8.35C99.7798 8.35 98.1465 8.48333 96.6465 8.75C96.5132 11.55 96.4298 14.05 96.3965 16.25L97.6465 16.3C98.9132 16.3667 99.8632 16.4 100.496 16.4C102.096 16.4 103.313 16.3667 104.146 16.3C105.013 16.2 105.963 16.05 106.996 15.85C107.13 16.5167 107.196 17.1333 107.196 17.7C107.196 18.1667 107.13 18.8 106.996 19.6C103.33 19.3667 100.463 19.25 98.3965 19.25C97.4298 19.25 96.7465 19.2667 96.3465 19.3C96.3465 22.9333 96.4132 25.4833 96.5465 26.95C98.1465 27.2833 99.8965 27.45 101.796 27.45C103.263 27.45 104.73 27.3333 106.196 27.1C107.663 26.8667 108.863 26.5333 109.796 26.1C109.796 27 109.696 27.9833 109.496 29.05C109.296 30.0833 109.046 30.7833 108.746 31.15C106.613 30.9167 103.546 30.8 99.5465 30.8C95.9798 30.8 93.3132 30.9167 91.5465 31.15ZM134.226 31.25C133.359 31.25 132.409 31.1333 131.376 30.9L129.076 24.4C127.509 24.2667 125.559 24.2 123.226 24.2C120.759 24.2 119.076 24.2833 118.176 24.45C117.442 26.3833 116.676 28.5333 115.876 30.9C115.276 31.1 114.726 31.2 114.226 31.2C113.559 31.2 112.876 31.1 112.176 30.9C113.109 29.2333 114.759 25.3 117.126 19.1C119.492 12.9 121.259 8.05 122.426 4.55C123.326 4.38333 124.059 4.3 124.626 4.3C125.226 4.3 125.892 4.38333 126.626 4.55C127.792 8.05 129.559 12.9 131.926 19.1C134.292 25.3 135.942 29.2333 136.876 30.9C136.042 31.1333 135.159 31.25 134.226 31.25ZM125.126 21.45C126.492 21.45 127.442 21.4333 127.976 21.4C126.342 16.9333 124.892 13.2167 123.626 10.25C122.426 13.0167 121.009 16.7 119.376 21.3C121.076 21.4 122.992 21.45 125.126 21.45ZM148.921 31.3C147.488 31.3 146.004 31.2167 144.471 31.05C142.938 30.9167 141.621 30.7333 140.521 30.5C140.688 28.9 140.821 26.7167 140.921 23.95C141.021 21.15 141.071 18.5 141.071 16C141.071 10.4333 140.788 7.01667 140.221 5.75C141.288 5.35 142.704 5.03333 144.471 4.8C146.271 4.53333 148.088 4.4 149.921 4.4C154.354 4.4 157.754 5.55 160.121 7.85C162.488 10.15 163.671 13.4333 163.671 17.7C163.671 20.3667 163.054 22.7333 161.821 24.8C160.588 26.8333 158.854 28.4333 156.621 29.6C154.388 30.7333 151.821 31.3 148.921 31.3ZM151.271 28.75C152.671 28.55 153.954 27.95 155.121 26.95C156.288 25.9167 157.204 24.6667 157.871 23.2C158.571 21.7 158.921 20.1667 158.921 18.6C158.921 11.3 155.571 7.65 148.871 7.65C147.771 7.65 146.704 7.8 145.671 8.1C145.438 11.8333 145.321 15.6833 145.321 19.65C145.321 22.8833 145.404 25.5833 145.571 27.75C148.071 28.4167 149.971 28.75 151.271 28.75ZM178.833 31.6C177.1 31.6 175.35 31.4667 173.583 31.2C171.85 30.9667 170.417 30.65 169.283 30.25C169.417 28.7833 169.517 26.6167 169.583 23.75C169.683 20.8833 169.733 18.1 169.733 15.4C169.733 10.1333 169.45 6.91667 168.883 5.75C170.083 5.35 171.567 5.03333 173.333 4.8C175.133 4.53333 176.9 4.4 178.633 4.4C181.8 4.4 184.233 5.01667 185.933 6.25C187.633 7.45 188.483 9.18333 188.483 11.45C188.483 12.6833 188.117 13.8 187.383 14.8C186.65 15.8 185.617 16.6167 184.283 17.25C185.983 17.8167 187.317 18.6833 188.283 19.85C189.25 20.9833 189.733 22.3 189.733 23.8C189.733 26.3 188.783 28.2333 186.883 29.6C185.017 30.9333 182.333 31.6 178.833 31.6ZM174.033 16.9C175.267 16.5667 176.8 16.4 178.633 16.4C179.6 16.4 180.3 16.4333 180.733 16.5C182.733 15.1333 183.733 13.6333 183.733 12C183.733 9.1 181.85 7.65 178.083 7.65C176.717 7.65 175.467 7.81667 174.333 8.15C174.2 10.6167 174.1 13.5333 174.033 16.9ZM178.283 29.35C182.717 29.35 184.933 27.5 184.933 23.8C184.933 22.5667 184.583 21.4833 183.883 20.55C183.217 19.6167 182.233 18.9 180.933 18.4C179.4 18.4 177.083 18.8667 173.983 19.8C173.983 23.7667 174.083 26.7333 174.283 28.7C175.483 29.1333 176.817 29.35 178.283 29.35ZM214.06 31.25C213.193 31.25 212.243 31.1333 211.21 30.9L208.91 24.4C207.343 24.2667 205.393 24.2 203.06 24.2C200.593 24.2 198.91 24.2833 198.01 24.45C197.276 26.3833 196.51 28.5333 195.71 30.9C195.11 31.1 194.56 31.2 194.06 31.2C193.393 31.2 192.71 31.1 192.01 30.9C192.943 29.2333 194.593 25.3 196.96 19.1C199.326 12.9 201.093 8.05 202.26 4.55C203.16 4.38333 203.893 4.3 204.46 4.3C205.06 4.3 205.726 4.38333 206.46 4.55C207.626 8.05 209.393 12.9 211.76 19.1C214.126 25.3 215.776 29.2333 216.71 30.9C215.876 31.1333 214.993 31.25 214.06 31.25ZM204.96 21.45C206.326 21.45 207.276 21.4333 207.81 21.4C206.176 16.9333 204.726 13.2167 203.46 10.25C202.26 13.0167 200.843 16.7 199.21 21.3C200.91 21.4 202.826 21.45 204.96 21.45ZM223.155 31.3C222.355 31.3 221.422 31.2 220.355 31C220.488 29.3667 220.605 27.0333 220.705 24C220.838 20.9667 220.905 18.2667 220.905 15.9C220.905 10.4 220.622 7.01667 220.055 5.75C221.088 5.35 222.438 5.03333 224.105 4.8C225.805 4.53333 227.522 4.4 229.255 4.4C232.588 4.4 235.155 5.16667 236.955 6.7C238.755 8.2 239.655 10.3667 239.655 13.2C239.655 14.9 239.205 16.4167 238.305 17.75C237.438 19.05 236.188 20.0833 234.555 20.85C237.122 25.8833 239.172 29.0167 240.705 30.25C239.805 30.65 238.872 30.9167 237.905 31.05C236.972 31.2167 235.922 31.3 234.755 31.3C234.055 29.5 232.488 26.3833 230.055 21.95C229.922 21.9833 229.622 22 229.155 22C228.488 22 227.755 21.9667 226.955 21.9C226.188 21.8333 225.588 21.7333 225.155 21.6C225.188 26.4 225.455 29.5333 225.955 31C225.055 31.2 224.122 31.3 223.155 31.3ZM230.605 19.45C231.872 18.9167 232.905 18.1333 233.705 17.1C234.505 16.0667 234.905 14.9 234.905 13.6C234.905 9.63333 232.672 7.65 228.205 7.65C227.238 7.65 226.338 7.76667 225.505 8C225.338 10.4333 225.222 13.8333 225.155 18.2C227.488 19.0333 229.305 19.45 230.605 19.45ZM73.8 45.63C73.8 46.74 73.61 47.71 73.23 48.54C72.86 49.36 72.31 50 71.58 50.46C70.85 50.92 69.945 51.15 68.865 51.15C67.755 51.15 66.83 50.92 66.09 50.46C65.36 50 64.815 49.355 64.455 48.525C64.095 47.695 63.915 46.725 63.915 45.615C63.915 44.515 64.095 43.555 64.455 42.735C64.815 41.915 65.36 41.275 66.09 40.815C66.83 40.355 67.76 40.125 68.88 40.125C69.95 40.125 70.85 40.355 71.58 40.815C72.31 41.265 72.86 41.905 73.23 42.735C73.61 43.555 73.8 44.52 73.8 45.63ZM65.34 45.63C65.34 46.98 65.625 48.045 66.195 48.825C66.765 49.595 67.655 49.98 68.865 49.98C70.085 49.98 70.975 49.595 71.535 48.825C72.095 48.045 72.375 46.98 72.375 45.63C72.375 44.28 72.095 43.225 71.535 42.465C70.975 41.695 70.09 41.31 68.88 41.31C67.67 41.31 66.775 41.695 66.195 42.465C65.625 43.225 65.34 44.28 65.34 45.63ZM79.8638 42.81C80.8238 42.81 81.5488 43.045 82.0388 43.515C82.5288 43.975 82.7738 44.725 82.7738 45.765V51H81.4688V45.855C81.4688 44.565 80.8688 43.92 79.6688 43.92C78.7788 43.92 78.1638 44.17 77.8238 44.67C77.4838 45.17 77.3138 45.89 77.3138 46.83V51H75.9938V42.96H77.0588L77.2538 44.055H77.3288C77.5888 43.635 77.9488 43.325 78.4088 43.125C78.8688 42.915 79.3538 42.81 79.8638 42.81ZM86.5862 51H85.2662V39.6H86.5862V51ZM89.8084 39.945C90.0084 39.945 90.1834 40.015 90.3334 40.155C90.4934 40.285 90.5734 40.495 90.5734 40.785C90.5734 41.065 90.4934 41.275 90.3334 41.415C90.1834 41.555 90.0084 41.625 89.8084 41.625C89.5884 41.625 89.4034 41.555 89.2534 41.415C89.1034 41.275 89.0284 41.065 89.0284 40.785C89.0284 40.495 89.1034 40.285 89.2534 40.155C89.4034 40.015 89.5884 39.945 89.8084 39.945ZM90.4534 42.96V51H89.1334V42.96H90.4534ZM96.8706 42.81C97.8306 42.81 98.5556 43.045 99.0456 43.515C99.5356 43.975 99.7806 44.725 99.7806 45.765V51H98.4756V45.855C98.4756 44.565 97.8756 43.92 96.6756 43.92C95.7856 43.92 95.1706 44.17 94.8306 44.67C94.4906 45.17 94.3206 45.89 94.3206 46.83V51H93.0006V42.96H94.0656L94.2606 44.055H94.3356C94.5956 43.635 94.9556 43.325 95.4156 43.125C95.8756 42.915 96.3606 42.81 96.8706 42.81ZM105.378 42.81C106.068 42.81 106.658 42.96 107.148 43.26C107.648 43.56 108.028 43.985 108.288 44.535C108.558 45.075 108.693 45.71 108.693 46.44V47.235H103.188C103.208 48.145 103.438 48.84 103.878 49.32C104.328 49.79 104.953 50.025 105.753 50.025C106.263 50.025 106.713 49.98 107.103 49.89C107.503 49.79 107.913 49.65 108.333 49.47V50.625C107.923 50.805 107.518 50.935 107.118 51.015C106.718 51.105 106.243 51.15 105.693 51.15C104.933 51.15 104.258 50.995 103.668 50.685C103.088 50.375 102.633 49.915 102.303 49.305C101.983 48.685 101.823 47.93 101.823 47.04C101.823 46.16 101.968 45.405 102.258 44.775C102.558 44.145 102.973 43.66 103.503 43.32C104.043 42.98 104.668 42.81 105.378 42.81ZM105.363 43.89C104.733 43.89 104.233 44.095 103.863 44.505C103.503 44.905 103.288 45.465 103.218 46.185H107.313C107.303 45.505 107.143 44.955 106.833 44.535C106.523 44.105 106.033 43.89 105.363 43.89ZM116.689 42.375C116.689 42.715 116.679 43.035 116.659 43.335C116.649 43.625 116.634 43.855 116.614 44.025H116.689C116.919 43.685 117.234 43.4 117.634 43.17C118.034 42.94 118.549 42.825 119.179 42.825C120.179 42.825 120.979 43.175 121.579 43.875C122.189 44.565 122.494 45.6 122.494 46.98C122.494 48.36 122.189 49.4 121.579 50.1C120.969 50.8 120.169 51.15 119.179 51.15C118.549 51.15 118.034 51.035 117.634 50.805C117.234 50.575 116.919 50.3 116.689 49.98H116.584L116.314 51H115.369V39.6H116.689V42.375ZM118.954 43.92C118.104 43.92 117.514 44.165 117.184 44.655C116.854 45.145 116.689 45.905 116.689 46.935V46.995C116.689 47.985 116.849 48.745 117.169 49.275C117.499 49.795 118.104 50.055 118.984 50.055C119.704 50.055 120.239 49.79 120.589 49.26C120.949 48.73 121.129 47.965 121.129 46.965C121.129 44.935 120.404 43.92 118.954 43.92ZM131.587 46.965C131.587 48.295 131.247 49.325 130.567 50.055C129.897 50.785 128.987 51.15 127.837 51.15C127.127 51.15 126.492 50.99 125.932 50.67C125.382 50.34 124.947 49.865 124.627 49.245C124.307 48.615 124.147 47.855 124.147 46.965C124.147 45.635 124.482 44.61 125.152 43.89C125.822 43.17 126.732 42.81 127.882 42.81C128.612 42.81 129.252 42.975 129.802 43.305C130.362 43.625 130.797 44.095 131.107 44.715C131.427 45.325 131.587 46.075 131.587 46.965ZM125.512 46.965C125.512 47.915 125.697 48.67 126.067 49.23C126.447 49.78 127.047 50.055 127.867 50.055C128.677 50.055 129.272 49.78 129.652 49.23C130.032 48.67 130.222 47.915 130.222 46.965C130.222 46.015 130.032 45.27 129.652 44.73C129.272 44.19 128.672 43.92 127.852 43.92C127.032 43.92 126.437 44.19 126.067 44.73C125.697 45.27 125.512 46.015 125.512 46.965ZM140.669 46.965C140.669 48.295 140.329 49.325 139.649 50.055C138.979 50.785 138.069 51.15 136.919 51.15C136.209 51.15 135.574 50.99 135.014 50.67C134.464 50.34 134.029 49.865 133.709 49.245C133.389 48.615 133.229 47.855 133.229 46.965C133.229 45.635 133.564 44.61 134.234 43.89C134.904 43.17 135.814 42.81 136.964 42.81C137.694 42.81 138.334 42.975 138.884 43.305C139.444 43.625 139.879 44.095 140.189 44.715C140.509 45.325 140.669 46.075 140.669 46.965ZM134.594 46.965C134.594 47.915 134.779 48.67 135.149 49.23C135.529 49.78 136.129 50.055 136.949 50.055C137.759 50.055 138.354 49.78 138.734 49.23C139.114 48.67 139.304 47.915 139.304 46.965C139.304 46.015 139.114 45.27 138.734 44.73C138.354 44.19 137.754 43.92 136.934 43.92C136.114 43.92 135.519 44.19 135.149 44.73C134.779 45.27 134.594 46.015 134.594 46.965ZM144.066 45.555C144.066 45.715 144.056 45.925 144.036 46.185C144.026 46.445 144.016 46.67 144.006 46.86H144.066C144.126 46.78 144.216 46.665 144.336 46.515C144.456 46.365 144.576 46.215 144.696 46.065C144.826 45.905 144.936 45.775 145.026 45.675L147.591 42.96H149.136L145.881 46.395L149.361 51H147.771L144.981 47.25L144.066 48.045V51H142.761V39.6H144.066V45.555ZM156.009 48.78C156.009 49.56 155.719 50.15 155.139 50.55C154.559 50.95 153.779 51.15 152.799 51.15C152.239 51.15 151.754 51.105 151.344 51.015C150.944 50.925 150.589 50.8 150.279 50.64V49.44C150.599 49.6 150.984 49.75 151.434 49.89C151.894 50.02 152.359 50.085 152.829 50.085C153.499 50.085 153.984 49.98 154.284 49.77C154.584 49.55 154.734 49.26 154.734 48.9C154.734 48.7 154.679 48.52 154.569 48.36C154.459 48.2 154.259 48.04 153.969 47.88C153.689 47.72 153.284 47.54 152.754 47.34C152.234 47.14 151.789 46.94 151.419 46.74C151.049 46.54 150.764 46.3 150.564 46.02C150.364 45.74 150.264 45.38 150.264 44.94C150.264 44.26 150.539 43.735 151.089 43.365C151.649 42.995 152.379 42.81 153.279 42.81C153.769 42.81 154.224 42.86 154.644 42.96C155.074 43.05 155.474 43.18 155.844 43.35L155.394 44.4C155.054 44.26 154.699 44.14 154.329 44.04C153.959 43.94 153.579 43.89 153.189 43.89C152.649 43.89 152.234 43.98 151.944 44.16C151.664 44.33 151.524 44.565 151.524 44.865C151.524 45.085 151.589 45.275 151.719 45.435C151.849 45.585 152.064 45.735 152.364 45.885C152.674 46.025 153.084 46.195 153.594 46.395C154.104 46.585 154.539 46.78 154.899 46.98C155.259 47.18 155.534 47.425 155.724 47.715C155.914 47.995 156.009 48.35 156.009 48.78Z" fill="black"/>
<g clip-path="url(#clip1)">
<path d="M54.7196 17.533C54.477 15.3747 54.4428 11.6573 56.1369 10.409C56.1672 10.3861 56.1897 10.3531 56.2162 10.3247C57.6013 9.80047 58.5598 9.06478 57.8074 8.07483L37.3761 0.790039L4.29317 6.23287C4.29317 6.23287 0.504759 6.87362 0.843186 13.8385C1.0269 17.6292 2.03162 19.4909 2.91027 20.4071L0.195519 21.3752C-0.557973 22.3651 0.400366 23.101 1.78559 23.6244C1.81191 23.6536 1.83411 23.6865 1.86491 23.7094C3.55794 24.9587 3.52535 28.6757 3.28183 30.8344C-2.80036 32.8781 -0.617063 33.5441 -0.617063 33.5441L0.717126 33.9261C-0.221336 34.9296 -1.15335 36.8326 -0.978768 40.4417C-0.640162 47.4053 2.47157 47.8859 2.47157 47.8859L24.1209 56.2127L56.7978 46.8467C56.7978 46.8467 58.9819 46.1797 52.898 44.1358C52.6535 41.9805 52.6194 38.2639 54.3164 37.0114C54.3476 36.9892 54.3703 36.9555 54.3955 36.9275C55.7808 36.4033 56.7384 35.6683 55.9858 34.6783L54.5655 34.1708C55.5127 33.4949 56.9355 31.7284 57.1585 27.1397C57.3123 23.9834 56.6164 22.1348 55.811 21.0465L58.6184 20.2426C58.6185 20.2439 60.8025 19.5769 54.7196 17.533ZM27.3873 17.4438L32.8823 16.1074L51.4525 11.5916L54.2192 10.9182C53.3351 12.8328 53.3722 15.4531 53.5185 17.1372C53.5505 17.5181 53.5874 17.8661 53.6232 18.1305L50.595 19.0215L27.1563 25.9213L27.3873 17.4438ZM3.78284 24.2207L6.54917 24.8941L24.3832 29.2323L25.9412 29.6099L30.6135 30.7463L30.8439 39.224L6.75401 32.1318L4.37912 31.4334C4.41404 31.1686 4.45092 30.8211 4.48441 30.439C4.6298 28.7562 4.66759 26.1353 3.78284 24.2207ZM2.70811 13.5033C2.67463 11.6507 2.95361 10.3109 3.51747 9.62989C3.87631 9.19509 4.29979 9.10462 4.59023 9.10462C4.74369 9.10462 4.85417 9.12983 4.86169 9.12983L19.1163 14.629L26.2281 17.3728L25.9947 25.9096L6.04332 19.2906L4.99043 18.9416C4.95176 18.9287 4.89929 18.9198 4.85882 18.9177C4.77664 18.9107 2.80409 18.6958 2.70811 13.5033ZM24.1724 52.5142L3.16866 45.5459C3.1298 45.5326 3.07788 45.5237 3.03741 45.5214C2.95379 45.5148 0.980347 45.3002 0.884907 40.1088C0.850885 38.254 1.1313 36.9154 1.69409 36.2338C2.05382 35.799 2.47748 35.7085 2.76738 35.7085C2.9212 35.7085 3.03132 35.7329 3.03938 35.7329C3.03938 35.7329 3.04027 35.7329 3.03938 35.7329L24.4043 43.9771L24.1724 52.5142ZM51.6951 43.7404C51.7282 44.1227 51.7651 44.47 51.8009 44.7348L25.3335 52.5263L25.5648 44.0485L31.2233 42.6719L32.059 42.9111L35.1912 41.7065L49.6291 38.1957L52.3969 37.5219C51.5119 39.4363 51.5486 42.0576 51.6951 43.7404ZM53.153 32.2189C53.1049 32.2202 53.0567 32.2278 53.0114 32.2447L51.0152 32.9061L32.0082 39.2128L31.7757 30.6759L38.0117 28.269L53.1115 22.4418C53.1135 22.4408 53.9058 22.2325 54.4874 22.9324C55.0504 23.6134 55.3297 24.9532 55.2968 26.8057C55.1983 31.9966 53.2248 32.2123 53.153 32.2189Z" fill="black"/>
</g>
</g>
<defs>
<clipPath id="clip0">
<rect width="242" height="56" fill="white"/>
</clipPath>
<clipPath id="clip1">
<rect width="60" height="71" fill="white" transform="translate(-1 -7)"/>
</clipPath>
</defs>
</svg>
